{"title":"Alexandra Stan - Thanks For Leaving [Music Video] 720p [Sbyky]","uid":10090189,"size":37679108,"categoryP":"video","categoryS":"music_videos","magnet":"?xt=urn:btih:f7341f704af85e0b556af89f020ebb8a39b1f822&amp;dn=Alexandra+Stan+-+Thanks+For+Leaving+%5BMusic+Video%5D+720p+%5BSbyky%5D&amp;tr=udp%3A%2F%2Ftracker.openbittorrent.com%3A80&amp;tr=udp%3A%2F%2Fopen.demonii.com%3A1337&amp;tr=udp%3A%2F%2Ftracker.coppersurfer.tk%3A6969&amp;tr=udp%3A%2F%2Fexodus.desync.com%3A6969","seeders":0,"leechers":1,"uploader":"Sbyky","files":1,"time":1399181102,"description":"\n\nGeneral\nComplete name                            : Alexandra Stan - Thanks For Leaving [Music Video] 720p [Sbyky].mp4\nFormat                                   : MPEG-4\nFormat profile                           : Base Media / Version 2\nCodec ID                                 : mp42\nFile size                                : 35.9 MiB\nDuration                                 : 4mn 6s\nOverall bit rate mode                    : Variable\nOverall bit rate                         : 1 221 Kbps\nEncoded date                             : UTC 2014-04-27 00:22:31\nTagged date                              : UTC 2014-04-27 00:22:31\n\nVideo\nID                                       : 1\nFormat                                   : AVC\nFormat/Info                              : Advanced Video Codec\nFormat profile                           : &lt;a class=&quot;__cf_email__&quot; href=&quot;/cdn-cgi/l/email-protection&quot; data-cfemail=&quot;064e6f616e464a352837&quot;&gt;[email&amp;#160;protected]&lt;/a&gt;&lt;script cf-hash='f9e31' type=&quot;text/javascript&quot;&gt;\n/* &lt;![CDATA[ */!function(){try{var t=&quot;currentScript&quot;in document?document.currentScript:function(){for(var t=document.getElementsByTagName(&quot;script&quot;),e=t.length;e--;)if(t[e].getAttribute(&quot;cf-hash&quot;))return t[e]}();if(t&amp;&amp;t.previousSibling){var e,r,n,i,c=t.previousSibling,a=c.getAttribute(&quot;data-cfemail&quot;);if(a){for(e=&quot;&quot;,r=parseInt(a.substr(0,2),16),n=2;a.length-n;n+=2)i=parseInt(a.substr(n,2),16)^r,e+=String.fromCharCode(i);e=document.createTextNode(e),c.parentNode.replaceChild(e,c)}}}catch(u){}}();/* ]]&gt; */&lt;/script&gt;\nFormat settings, CABAC                   : Yes\nFormat settings, ReFrames                : 1 frame\nCodec ID                                 : avc1\nCodec ID/Info                            : Advanced Video Coding\nDuration                                 : 4mn 6s\nBit rate                                 : 1 027 Kbps\nMaximum bit rate                         : 2 204 Kbps\nWidth                                    : 1 280 pixels\nHeight                                   : 720 pixels\nDisplay aspect ratio                     : 16:9\nFrame rate mode                          : Constant\nFrame rate                               : 25.000 fps\nColor space                              : YUV\nChroma subsampling                       : 4:2:0\nBit depth                                : 8 bits\nScan type                                : Progressive\nBits/(Pixel*Frame)                       : 0.045\nStream size                              : 30.2 MiB (84%)\nTagged date                              : UTC 2014-04-27 00:22:34\n\nAudio\nID                                       : 2\nFormat                                   : AAC\nFormat/Info                              : Advanced Audio Codec\nFormat profile                           : LC\nCodec ID                                 : 40\nDuration                                 : 4mn 6s\nBit rate mode                            : Variable\nBit rate                                 : 192 Kbps\nMaximum bit rate                         : 203 Kbps\nChannel(s)                               : 2 channels\nChannel positions                        : Front: L R\nSampling rate                            : 44.1 KHz\nCompression mode                         : Lossy\nStream size                              : 5.65 MiB (16%)\nTitle                                    : IsoMedia File Produced by Google, 5-11-2011\nEncoded date                             : UTC 2014-04-27 00:22:33\nTagged date                              : UTC 2014-04-27 00:22:34\n\nShared By Sbyky\n","torrent":{"xt":"urn:btih:f7341f704af85e0b556af89f020ebb8a39b1f822","amp;dn":"Alexandra+Stan+-+Thanks+For+Leaving+%5BMusic+Video%5D+720p+%5BSbyky%5D","amp;tr":["udp%3A%2F%2Ftracker.openbittorrent.com%3A80","udp%3A%2F%2Fopen.demonii.com%3A1337","udp%3A%2F%2Ftracker.coppersurfer.tk%3A6969","udp%3A%2F%2Fexodus.desync.com%3A6969"],"infoHash":"f7341f704af85e0b556af89f020ebb8a39b1f822","infoHashBuffer":{"type":"Buffer","data":[247,52,31,112,74,248,94,11,85,106,248,159,2,14,187,138,57,177,248,34]},"announce":[],"urlList":[]}}